/* XPM */
static char *fbaa953602014b49e5d6f6e3db691c7bzLdEt4XV0HhEXvvp[] = {
/* columns rows colors chars-per-pixel */
"42 42 16 1 ",
"  c #789000",
". c #88B028",
"X c #C8F840",
"o c #B8B800",
"O c #732900",
"+ c #101010",
"@ c #DE6300",
"# c #FFC610",
"$ c #FFAD10",
"% c DarkOrange",
"& c #F77B00",
"* c #FFEF52",
"= c white",
"- c #F74200",
"; c #E70000",
": c #A50000",
/* pixels */
" .. .X.. ....... .o .    oXo  . .   . .  .",
"   o o.  .. ....  . ..  oXo.  . .    .   .",
" ..  .   ..   oo    .. Xoo.    .oo. ..    ",
" .o      .. . .o.   .  o     .  .oo ..oo  ",
"  oo  Xo  oo.  Xo      .     .   .o ..oo .",
"  .. .X.   oo  .X  oo . . .. .    .      .",
"     .o .  .o  .Xooo. .      .       . . .",
" . .. . .  ..o   oo .oo  ooo    . .  .    ",
" . ..   .. . .   OOOOOO++o.     . .. .  ..",
" .  .X   .     O@###$$%&@O+           ..  ",
" .  Xo. .  . O@###%%%%%%%%@O+    . .. ..  ",
" .. o   .   O*==*##%%%%%%%%%@+     .  ooo ",
" .. . .    O*====##$%%%%%%%%&@+  .   Xo.. ",
". .   o.  O%=====###%%%%%%%%%@@+oo. Xo. . ",
". . . o. .@#====*###%%%%%%%%%&@O.Xo X.  ..",
"  . . .. O##*==####$%%%-%%%%%%@@+oXoo oXo ",
".   . .  @####$%$##%%%&;&%%%%%@@O.oo..X. .",
".    .  O##$#$%---%%%-;;;-%%%%@@@+ o o.  .",
"oo. ..  O#$%$#--;%%%%%;;;%%%%%@@@+.  .   .",
".oo ..ooO#%%%%-%-%%%%%-%-%%%%%@@@Oo      .",
" .o ..ooO$%%%%%%%%%%%%%%%%%%%&@@@Ooo  Xo  ",
"  .     O$%%%%%%%%%%%%%%%%%%%@@@@O.. .X.  ",
"     . .O%%%%%%%%%%%%%%%%%-%&@@@&O   .o . ",
". .  .  +&%%%%%%%%-%%%%%%&;&@@@@&+ .. . . ",
". .. .  +@%%%%%%%&;&%%%%-;;::@@@&+ ..   ..",
"      .. O&%%%%%-;;;-%%%%;::@@@%O.  .X   .",
" . .. .. +@&%%%%%;;;%%%%&:@:@@&%+.  Xo. . ",
"   .  ooo O@@&%%%-&-%%%&@@@@@@%O .. o   . ",
" .   Xo.. +@@@@&%%%%%&@@@@@@@%%+ .. . .   ",
"oo. Xo. .  +@@@@@@@@@@@@@@@@%%+.. .   o.  ",
".Xo X.  ... +@@@@@@@@@@@@@&%%+. . . . o. .",
" oXoo oXo . .+O@@@@@@@@@&%%O+ .   . . .. .",
" .oo..X. ......+O@@@&&&%%O+o  . .   . .  .",
"   o o.  .. .... ++OOOO++Xo.  . .    .   .",
" ..  .   ..   oo    .. Xoo.    .oo. ..    ",
" .o      .. . .o.   .  o     .  .oo ..oo  ",
"  oo  Xo  oo.  Xo      .     .   .o ..oo .",
"  .. .X.   oo  .X  oo . . .. .    .      .",
"     .o .  .o  .Xooo. .      .       . . .",
" . .. . .  ..o   oo .oo  ooo    . .  .    ",
" . ..   .. . .   o. oo  oo.     . .. .  ..",
" .  .X   .       .. .o oo             ..  "
};
