/* XPM */
static char *eb647e1d7a194079f342b060844a02f0CBLSTT7hOqxoesOH[] = {
/* columns rows colors chars-per-pixel */
"42 42 198 2 ",
"   c #140100",
".  c #1B0704",
"X  c #2D0302",
"o  c #2D0C06",
"O  c #210000",
"+  c #340200",
"@  c #390400",
"#  c #380D07",
"$  c #38180B",
"%  c #2C200F",
"&  c #292411",
"*  c #362A14",
"=  c #3B3118",
"-  c #450501",
";  c #410C03",
":  c #480D00",
">  c #4A0000",
",  c #5D0100",
"<  c #520101",
"1  c #481400",
"2  c #660000",
"3  c #6F0000",
"4  c #750000",
"5  c #7B0B03",
"6  c #750B02",
"7  c #641905",
"8  c #691605",
"9  c #751505",
"0  c #4C290A",
"q  c #5C260C",
"w  c #443B1D",
"e  c #762E07",
"r  c #7B2504",
"t  c #6D3311",
"y  c #683917",
"u  c #7C3C1A",
"i  c #793914",
"p  c #3B4304",
"a  c #404807",
"s  c #4F540D",
"d  c #4A411E",
"f  c #545305",
"g  c #7F4A19",
"h  c #54601D",
"j  c #5B6A18",
"k  c #68630D",
"l  c #6B7A0D",
"z  c #66760E",
"x  c #6B6C1B",
"c  c #6D7611",
"v  c #677515",
"b  c #4F4521",
"n  c #494C2B",
"m  c #564320",
"M  c #544E25",
"N  c #584D25",
"B  c #514A28",
"V  c #5E5227",
"C  c #5C5727",
"Z  c #595C30",
"A  c #625C23",
"S  c #6B5C2C",
"D  c #62572A",
"F  c #5C622E",
"G  c #5F7934",
"H  c #6E622B",
"J  c #697A27",
"K  c #7B6832",
"L  c #73662B",
"P  c #850100",
"I  c #8D0000",
"U  c #8A0B02",
"Y  c #830B00",
"T  c #940200",
"R  c #9B0000",
"E  c #9B0C00",
"W  c #930900",
"Q  c #951301",
"!  c #9C1400",
"~  c #9B1900",
"^  c #881305",
"/  c #A40200",
"(  c #AC0100",
")  c #A40C00",
"_  c #A90C00",
"`  c #B30000",
"'  c #BB0400",
"]  c #B60A00",
"[  c #BD0B00",
"{  c #A61000",
"}  c #AB1400",
"|  c #A11A00",
" . c #AC1D00",
".. c #B31400",
"X. c #B81E00",
"o. c #872C09",
"O. c #9A2A00",
"+. c #972800",
"@. c #9A3200",
"#. c #813D15",
"$. c #A22500",
"%. c #AB2500",
"&. c #AE2D00",
"*. c #A22D00",
"=. c #B92600",
"-. c #B42C00",
";. c #B92E00",
":. c #A33600",
">. c #AB3600",
",. c #AC3B00",
"<. c #A53801",
"1. c #B33500",
"2. c #BA3500",
"3. c #B13B00",
"4. c #BB3D00",
"5. c #C40B00",
"6. c #CB0F00",
"7. c #D40B00",
"8. c #C51800",
"9. c #D41300",
"0. c #D31B00",
"q. c #D91700",
"w. c #E11E00",
"e. c #CA2C00",
"r. c #CA2A00",
"t. c #D72A00",
"y. c #C33600",
"u. c #CB3200",
"i. c #CC3C00",
"p. c #C03900",
"a. c #D43800",
"s. c #DA3800",
"d. c #E42300",
"f. c #EA2F00",
"g. c #EC3200",
"h. c #E13B00",
"j. c #EF3A00",
"k. c #F23E00",
"l. c #8C4707",
"z. c #9C4B0F",
"x. c #864918",
"c. c #934C18",
"v. c #8A511C",
"b. c #AB4907",
"n. c #BD4100",
"m. c #BC4C01",
"M. c #A55403",
"N. c #BE5D06",
"B. c #8B5725",
"V. c #915C28",
"C. c #8D7A3B",
"Z. c #C44300",
"A. c #CC4500",
"S. c #CE4A00",
"D. c #C04F02",
"F. c #D44500",
"G. c #D44A00",
"H. c #D94D00",
"J. c #D75600",
"K. c #E34E00",
"L. c #E14600",
"P. c #F34900",
"I. c #E35500",
"U. c #E85200",
"Y. c #E35D00",
"T. c #E95F00",
"R. c #F85C00",
"E. c #CF6702",
"W. c #DB6501",
"Q. c #EB6E00",
"!. c #E86400",
"~. c #F46300",
"^. c #F86400",
"/. c #F46900",
"(. c #F86900",
"). c #EE7C00",
"_. c #E97101",
"`. c #F27500",
"'. c #F27C00",
"]. c #6E8409",
"[. c #728606",
"{. c #789000",
"}. c #7C8011",
"|. c #778F27",
" X c #75972B",
".X c #B8B800",
"XX c #B5B501",
"oX c #A9A705",
"OX c #93813E",
"+X c #8F9B34",
"@X c #85AD28",
"#X c #88B028",
"$X c #88B028",
"%X c #F68300",
"&X c #F88800",
"*X c #F88700",
"=X c #C8F840",
"-X c #C8F840",
/* pixels */
"{.#X#X{.#X=X#X#X{.#X#X#X#X#X#X#X{.#X.X{.#X{.{.{.{..X=X.X{.{.#X{.#X{.{.{.#X{.#X{.{.#X",
"{.{.{..X{..X#X{.{.#X#X{.#X#X#X#X{.{.#X{.#X#X{.{..X=X.X#X{.{.#X{.#X{.{.{.{.#X{.{.{.#X",
"{.#X#X{.{.#X{.{.{.#X#X{.{.{..X.X{.{.{.{.#X#X{.-X.X.X#X{.{.{.{.#X.X.X#X{.#X#X{.{.{.{.",
"{.#X.X{.{.{.{.{.{.#X#X{.#X{.@XoX|.c C N N N N A x l z z [.#X{.{.#X.X.X{.#X#X.X.X{.{.",
"{.{..X.X{.{.=X.X{.{..X.X@X].l +XL H S S S S S S H H C n j @X{.{.{.#X.X{.#X#X.X.X{.#X",
"{.{.#X#X{.#X=X#X{.{.{.XX}.A D d = * # ; ; ; ; ; $ = w M Z G ].{.{.{.#X{.{.{.{.{.{.#X",
"{.{.{.{.{.#X.X{.#X{.{. XF D * o - < 3 4 4 4 4 4 , - o * B F ].{.{.{.{.{.{.#X{.#X{.#X",
"{.#X{.#X#X{.#X{.#Xl l n C *   3 P I / ` R T ( / I P 4 X & D v [.#X{.#X{.{.#X{.{.{.{.",
"{.#X{.#X#X{.{.{.#XJ j n w . 2 T / ( R T ) T ) / ` ( R 4 $ M x c |.{.#X#X{.#X{.{.#X#X",
"{.#X{.{.#X=X{.{.{.M M S * O 4 ` ' ( R E { E } / / ` ` P + % V V M {.{.{.{.{.#X#X{.{.",
"{.#X{.{.=X.X#X{.#XM M S % > R ' [ 7.5._ { E ..5.7.5.' / , $ N V M #X{.#X#X{.#X#X{.{.",
"{.#X#X{..X{.{.{.#XM N S o 2 ( ] 9.9.6.} } E X.5.7.9.[ ( 4 X m V M {.{.#X{.{..X.X.X{.",
"{.#X#X{.#X{.#X{.{.M N S - T ( 0.d.w.0.} } E X.8.w.d.q.] T @ m V N #X{.{.{.=X.X#X#X{.",
"#X{.#X{.{.{..X#X{.M N S - ) ..g.f.g.t.} } E X.r.g.f.g.8.E - m V N .X#X{.=X.X#X{.#X{.",
"#X{.#X{.#X{..X#X{.N N S - %.X.k.j.k.t...} E X.t.k.j.k.r.| : m V N =X.X{.=X#X{.{.#X#X",
"{.{.#X{.#X{.#X#X{.N N S - %.=.P.P.P.s. . .! =.a.P.P.P.u.$.: m V N .X=X.X.X{..X=X.X{.",
"#X{.{.{.#X{.#X{.{.N N S - >.;.R.^.R.K.-.%.! 2.F.R.^.R.i.*.1 m V N #X.X.X#X#X=X#X{.#X",
"#X{.{.{.{.#X{.{.{.N N S - >.2.^.^.^.I.-.%.! 2.G.^.^.^.A.:.1 m V N {.{..X{..X#X{.{.#X",
".X.X#X{.#X#X{.{.{.N N S - <.2.(.~.T.G.-.%.~ 4.Z.Y.~.^.A.:.1 m V N #X#X{.{.#X{.{.{.#X",
"#X.X.X{.#X#X.X.X{.N N S - <.2.(.Y.<.+.$.%.~ 1.+.@.G.~.A.:.1 m V N #X.X{.{.{.{.{.{.#X",
"{.#X.X{.#X#X.X.X{.N N S - ,.2./.D.e 7 9 $.~ @.r e b.!.A.:.1 m V N {..X.X{.{.=X.X{.{.",
"{.{.#X{.{.{.{.{.{.N N S - ,.p._.b.g i 8 ~ Q o.#.v.z.W.S.<.1 m V N {.#X#X{.#X=X#X{.{.",
"{.{.{.{.{.#X{.#X{.N N S - ,.y.E.c.V.B.u ^ U o.v.V.c.N.S.>.1 m V N {.{.{.{.#X.X{.#X{.",
"#X{.#X{.{.#X{.{.{.N N S - ,.y.M.y u #.V.9 5 u x.u y l.n.>.1 m V N #X{.#X#X{.#X{.#X{.",
"#X{.#X#X{.#X{.{.#XN N S - ,.2.M.q x.x.x.9 5 t x.x.t l.4.>.1 m V N #X{.#X#X{.{.{.#X#X",
"{.{.{.{.{.{.#X#X{.N N S - ,.u.m.8 0 0 8 P P 6 q 0 7 <.i.>.1 m V N #X{.{.#X=X{.{.{.#X",
"{.#X{.#X#X{.#X#X{.N N S - 3.s.J. .5 6 U E W ! Y 5 ! G.L.1.1 m V N #X{.{.=X.X#X{.#X{.",
"{.{.{.#X{.{..X.X.XN N S - 3.h.'.I.a.e. .%.! ;.e.a.K.`.K.1.1 m V N #X#X{..X{.{.{.#X{.",
"{.#X{.{.{.=X.X#X#XN N S - 3.h.*X%X`.T.e.%.| i.I.`.'.*XU.1.1 m V N #X#X{.#X{.#X{.{.{.",
".X.X#X{.=X.X#X{.#XN N S - 3.h.&X&X&XQ.u.%.| i.Y.&X&X&XU.1.1 m V N {.#X{.{.{..X#X{.{.",
"#X=X.X{.=X#X{.{.#XN N S - ,.i.&X&X&XQ.u.%.| i.Y.&X&X&XJ.>.1 m V N {.#X{.#X{..X#X{.#X",
"{..X=X.X.X{..X=X.XN N S - ,.a.'.'.).W.-.%.~ 4.J.).'.'.H.>.1 m V N {.#X{.#X{.#X#X{.#X",
"{.#X.X.X#X#X=X#X{.N N S - ,.Z.A.F.Z.4.1.&.~ 4.n.Z.A.F.Z.,.1 m V N {.{.{.#X{.#X{.{.#X",
"{.{.{..X{..X#X{.{.N N S - O.1.-.;.&.&.&.| Q 1.1.&.-.-.1.O.; m V N {.{.{.{.#X{.{.{.#X",
"{.#X#X{.{.#X{.{.{.N N S   + @ @ @ @ @ @ + + @ @ @ @ @ @ +   m V N .X#X{.#X#X{.{.{.{.",
"{.#X.X{.{.{.{.{.{.b m OXK K K K K K K K K K K K K K K K K K C.D b .X.X{.#X#X.X.X{.{.",
"{.{..X.X{.{.=X.X{.p f k h s s J k s s s s s s h s s s s s h s a p #X.X{.#X#X.X.X{.#X",
"{.{.#X#X{.#X=X#X{.p p k k s s h J s s k k s h s h s h h s h s a p {.#X{.{.{.{.{.{.#X",
"{.{.{.{.{.#X.X{.#X{.{.#X.X{.{.#X=X.X.X.X#X{.#X{.{.{.{.{.{.#X{.{.{.{.{.{.{.#X{.#X{.#X",
"{.#X{.#X#X{.#X{.#X{.{.#X#X.X{.{.{..X.X{.#X.X.X{.{..X.X.X{.{.{.{.#X{.#X{.{.#X{.{.{.{.",
"{.#X{.#X#X{.{.{.#X#X{.#X{.#X{.{.{..X#X{..X.X{.{..X.X#X{.{.{.{.{.#X{.#X#X{.#X{.{.#X#X",
"{.#X{.{.#X=X{.{.{.#X{.{.{.{.{.{.{.#X#X{.#X.X{..X.X{.{.{.{.{.{.{.{.{.{.{.{.{.#X#X{.{."
};
