/* XPM */
static char *_6e5e30f275a4605d5f744a77043bf1ejl52OCrkOHKPweM9[] = {
/* columns rows colors chars-per-pixel */
"42 42 4 1 ",
"  c #789000",
". c #88B028",
"X c #C8F840",
"o c #B8B800",
/* pixels */
" .. .X.. ....... .o .    oXo  . .   . .  .",
"   o o.  .. ....  . ..  oXo.  . .    .   .",
" ..  .   ..   oo    .. Xoo.    .oo. ..    ",
" .o      .. . .o.   .  o     .  .oo ..oo  ",
"  oo  Xo  oo.  Xo      .     .   .o ..oo .",
"  .. .X.   oo  .X  oo . . .. .    .      .",
"     .o .  .o  .Xooo. .      .       . . .",
" . .. . .  ..o   oo .oo  ooo    . .  .    ",
" . ..   .. . .   o. oo  oo.     . .. .  ..",
" .  .X   .       .. .o oo             ..  ",
" .  Xo. .  .  .o .     ooooo.    . .. ..  ",
" .. o   .   .. oo  .X  ....oo      .  ooo ",
" .. . .      . .o XX.  .     .   .   Xo.. ",
". .   o.  .  .  ooX.. .o .. . ..oo. Xo. . ",
". . . o. .X.     oo   X.  ..  . .Xo X.  ..",
"  . . .. .oX. .  o.  oX  XX..X   oXoo oXo ",
".   . .  ..oo XX .. .X.  .X. XX  .oo..X. .",
".    .   . .. .X    ..    oo .X    o o.  .",
"oo. ..         oo    ..XX..o  X  ..  .   .",
".oo ..oo    .  .. ... . XX o. o. .o      .",
" .o ..oo .  .XX.  ... . .oo o o.  oo  Xo  ",
"  .      . . .oo. ..     .o o  .  .. .X.  ",
"     . . . .. .o.         .    .     .o . ",
". .  .      .  .o    .  .    .   . .. . . ",
". .. .  ..  .   .    .  .    .   . ..   ..",
"      ..          ..             .  .X   .",
" . .. ..   ..     .              .  Xo. . ",
"   .  ooo  ooo  . .   .     .  . .. o   . ",
" .   Xo..  ooo  . ..  .. .  .  . .. . .   ",
"oo. Xo. .      . o .. .  .  .  .. .   o.  ",
".Xo X.  ... .  . o  . .  . .  . . . . o. .",
" oXoo oXo . .  . oo   .  . oo .   . . .. .",
" .oo..X. ....... .o .    oXo  . .   . .  .",
"   o o.  .. ....  . ..  oXo.  . .    .   .",
" ..  .   ..   oo    .. Xoo.    .oo. ..    ",
" .o      .. . .o.   .  o     .  .oo ..oo  ",
"  oo  Xo  oo.  Xo      .     .   .o ..oo .",
"  .. .X.   oo  .X  oo . . .. .    .      .",
"     .o .  .o  .Xooo. .      .       . . .",
" . .. . .  ..o   oo .oo  ooo    . .  .    ",
" . ..   .. . .   o. oo  oo.     . .. .  ..",
" .  .X   .       .. .o oo             ..  "
};
