/* XPM */
static char *c9391af327fd4276ed77bf1841a62eaf63zm58019fdLvDY9[] = {
/* columns rows colors chars-per-pixel */
"42 42 19 1 ",
"  c #789000",
". c #88B028",
"X c #C8F840",
"o c #B8B800",
"O c gray71",
"+ c #6B2910",
"@ c #B57342",
"# c #EFEF84",
"$ c #EFAD6B",
"% c #FFE79C",
"& c gray84",
"* c #108C18",
"= c white",
"- c #181818",
"; c #00397B",
": c #4A296B",
"> c #734A8C",
", c #185AB5",
"< c #C64200",
/* pixels */
" .. .X.. ....... .o .    oXo  . .   . .  .",
"   o o.  .. ....  . ..  oXo.  . .    .   .",
" ..  .   ..   oo    .. Xoo.    .oo. ..    ",
" .o      .. . .o.   .  o     .  .oo ..oo  ",
"  oo  Xo  oo.  Xo      .     .   .o ..oo .",
"  .. .X.   oo OOOO oo . . .. .    .      .",
"     .o .  .oO+@@@Oo. .      .       . . .",
" . .. . .  ..oO+##@OOOO  ooo    . .  .    ",
" . ..   .. . .OO+##@+@@OoO.     . .. .  ..",
" .  .X   .  OO@@+###@##@O@O           ..  ",
" .  Xo. .  O@@###+###@##@#@O.    . .. ..  ",
" .. o   . O@@####+########@OO      .  ooo ",
" .. . .    OO++###+#@@#####@@O   .   Xo.. ",
". .   o.  . OO#+@#+@#####@##@O..oo. Xo. . ",
". . . o. .X.O#+@##@###+###@##O. .Xo X.  ..",
"  . . .. .oO@+@##@###+@++#@+@@O  oXoo oXo ",
".   . .  ..oOO@##+##+$%$+#@#+OX  .oo..X. .",
".    .   . ..O@#++#+$%%$+@+#@@O    o o.  .",
"oo. ..       O@+@++@%%%@++@+@OX  ..  .   .",
".oo ..oo    .O@+$+&*$%$*&+$+O o. .o      .",
" .o ..oo .  .XOO+@=@%%%@=@+Oo o.  oo  Xo  ",
"  .      . . .ooO+$%%%%%$+OOOO .  .. .X.  ",
"     . . . .. .OO-+$%%%$+-O+@@O.     .o . ",
". .  .      .OO;:::-+++-::$@%%@O . .. . . ",
". .. .  ..  O+@+;:>:@$@:>-@+$%@O . ..   ..",
"      ..   O+$+$+::>:@:>-:++$$+O .  .X   .",
" . .. ..   O+%$++-:>>:>>::-+@@O  .  Xo. . ",
"   .  ooo  O+@%$+-;::>::;--;;-O. .. o   . ",
" .   Xo..  oO+++---;;,;;::---O . .. . .   ",
"oo. Xo. .    OO@-:>::-:>>>:OO  .. .   o.  ",
".Xo X.  ... .  O-:::-O-:>>>:O . . . . o. .",
" oXoo oXo . .-O-----OOO->>>:O .   . . .. .",
" .oo..X. ..--O-++--O---O-::-O-- .   . .  .",
"   o o.  .---O-<+-O-----O-++-O--.    .   .",
" ..  .   .---O---O------O-+<<-O-oo. ..    ",
" .o      .----OOO--------O-<<-O-.oo ..oo  ",
"  oo  Xo  o---------------O---O  .o ..oo .",
"  .. .X.   oo--------------OOO    .      .",
"     .o .  .o  .Xooo. .      .       . . .",
" . .. . .  ..o   oo .oo  ooo    . .  .    ",
" . ..   .. . .   o. oo  oo.     . .. .  ..",
" .  .X   .       .. .o oo             ..  "
};
