/* XPM */
static char *_a0a5b4de45c4f4c8b0101b885cfd974bD4b0e3vSP65ibPU[] = {
/* columns rows colors chars-per-pixel */
"42 42 4 1 ",
"  c #F0E8E0",
". c gray72",
"X c gray47",
"o c #F8F8F8",
/* pixels */
" ........................................X",
"o                                        .",
"o                                        .",
"o                                        .",
"o                                        .",
"o                                        .",
"o                                        .",
"o                                        .",
"o                                        .",
"o                                        .",
"o                                        .",
"o                                        .",
"o                                        .",
"o                                        .",
"o                                        .",
"o                                        .",
"o                                        .",
"o                                        .",
"o                                        .",
"o                                        .",
"o                                        .",
"o                                        .",
"o                                        .",
"o                                        .",
"o                                        .",
"o                                        .",
"o                                        .",
"o                                        .",
"o                                        .",
"o                                        .",
"o                                        .",
"o                                        .",
"o                                        .",
"o                                        .",
"o                                        .",
"o                                        .",
"o                                        .",
"o                                        .",
"o                                        .",
"o                                        .",
"o                                        .",
"oooooooooooooooooooooooooooooooooooooooooX"
};
